<?xml version="1.0" encoding="utf-8"?>
<!-- Generator: Adobe Illustrator 17.1.0, SVG Export Plug-In . SVG Version: 6.00 Build 0)  -->
<!DOCTYPE svg PUBLIC "-//W3C//DTD SVG 1.1//EN" "http://www.w3.org/Graphics/SVG/1.1/DTD/svg11.dtd">
<svg version="1.1" id="Layer_1" xmlns="http://www.w3.org/2000/svg" xmlns:xlink="http://www.w3.org/1999/xlink" x="0px" y="0px"
	 viewBox="0 0 510.6 306" enable-background="new 0 0 510.6 306" xml:space="preserve">
<path fill="#FFFFFF" d="M308.5,24.7L291.3,8.3l-14.9,16.9L255.3,5.8l-21.2,19.4L219.3,8.3l-17.1,16.3L181.3,0.1v69.1l74,98.3
	l74-98.3V0L308.5,24.7z M220.5,78.9l29.8,75.3l-62.1-82.6L220.5,78.9z M224.9,79.1h60.7l-30.4,76.8L224.9,79.1z M290,78.9l32.4-7.3
	l-62.1,82.6L290,78.9z M325.3,66.9L291,74.5l4.8-28.6l29.5-35V66.9z M291.5,14l14.4,13.7l-11.6,13.8l-14.9-13.7L291.5,14z
	 M291.9,44.9l-5,30.3h-63.2l-5.1-30.4l36.7-33.5L291.9,44.9z M219,14l12.1,13.8l-14.7,13.4l-11.6-13.6L219,14z M214.6,45.3l4.9,29.2
	l-34.2-7.7v-56L214.6,45.3z"/>
<g>
	<path fill="#FFFFFF" d="M43.1,252.2h-5.5L13,218.3l-8.6,7.5v26.3H0v-64.1h4.5v33.3l7.1-7.1l25.1-26.2h5.7l-26.3,27.1L43.1,252.2z"
		/>
	<path fill="#FFFFFF" d="M74.6,252.2v-64.1h4.5v64.1H74.6z"/>
	<path fill="#FFFFFF" d="M166.3,252.2h-4.5l-38-56.9h-0.4c0.4,6.8,0.5,11.9,0.5,15.3v41.6h-4.3v-64.1h4.5l37.9,56.8h0.3
		c-0.3-5.3-0.4-10.3-0.4-15v-41.8h4.3V252.2z"/>
	<path fill="#FFFFFF" d="M232.2,219.8h23.6v29.3c-6.2,2.6-13.2,3.9-20.9,3.9c-10.1,0-17.9-2.9-23.3-8.6s-8.1-13.8-8.1-24.3
		c0-6.5,1.3-12.3,4-17.3s6.5-8.9,11.5-11.7c5-2.7,10.7-4.1,17.2-4.1c7,0,13.3,1.3,18.8,3.9l-1.8,4c-5.6-2.6-11.3-3.9-17.3-3.9
		c-8.4,0-15.2,2.6-20.1,7.8s-7.4,12.3-7.4,21.1c0,9.6,2.4,16.9,7.1,21.8c4.7,4.9,11.6,7.3,20.7,7.3c5.9,0,10.9-0.8,15-2.5v-22.5
		h-19.1V219.8z"/>
	<path fill="#FFFFFF" d="M294.4,252.2v-64.1h4.5V248h30.6v4.2H294.4z"/>
	<path fill="#FFFFFF" d="M362.9,252.2v-64.1h4.5v64.1H362.9z"/>
	<path fill="#FFFFFF" d="M412.4,252.2H408v-64.1h35.1v4.1h-30.7v27.2h28.9v4.2h-28.9V252.2z"/>
	<path fill="#FFFFFF" d="M510.6,252.2h-35v-64.1h35v4.1H480v24.3h28.9v4.1H480V248h30.6V252.2z"/>
</g>
<g>
	<path fill="#FFFFFF" d="M155.8,306h-2.3v-33h18.1v2.1h-15.8v14h14.9v2.1h-14.9V306z"/>
	<path fill="#FFFFFF" d="M204.1,294.4h-13.4l-4.6,11.6h-2.5l13.3-33.1h1.5l13,33.1h-2.6L204.1,294.4z M191.6,292.3h11.8l-4.5-11.9
		c-0.4-0.9-0.8-2.2-1.4-3.9c-0.4,1.4-0.8,2.8-1.3,3.9L191.6,292.3z"/>
	<path fill="#FFFFFF" d="M242,306l-12.3-30.4h-0.2c0.1,1.9,0.2,3.8,0.2,5.7V306h-2.2v-33h3.6l11.7,29h0.1l11.7-29h3.5v33h-2.3v-25
		c0-1.7,0.1-3.5,0.3-5.4h-0.2L243.5,306H242z"/>
	<path fill="#FFFFFF" d="M278.9,306v-33h2.3v33H278.9z"/>
	<path fill="#FFFFFF" d="M302.1,306v-33h2.3v30.8h15.7v2.2H302.1z"/>
	<path fill="#FFFFFF" d="M344.9,291.1l9.7-18h2.5l-11,20.2V306h-2.4v-12.6l-11-20.4h2.6L344.9,291.1z"/>
</g>
</svg>
