<?xml version="1.0" encoding="utf-8"?>
<!-- Generator: Adobe Illustrator 17.1.0, SVG Export Plug-In . SVG Version: 6.00 Build 0)  -->
<!DOCTYPE svg PUBLIC "-//W3C//DTD SVG 1.1//EN" "http://www.w3.org/Graphics/SVG/1.1/DTD/svg11.dtd">
<svg version="1.1" id="Layer_1" xmlns="http://www.w3.org/2000/svg" xmlns:xlink="http://www.w3.org/1999/xlink" x="0px" y="0px"
	 viewBox="0 0 117.7 121" enable-background="new 0 0 117.7 121" xml:space="preserve">
<g>
	<path d="M117.7,31.5c-1.2,5.7-2.2,11.5-3.6,17.2c-4.1,16.8-14.9,27.9-30.5,34.6c-1.5,0.6-3,1.2-5.1,2.1c2.5,6.3,4.9,12.5,7.4,18.7
		c0.7,1.9,1.6,3.7,2.2,5.6c1.6,4.7,0,8-4.6,9.9c-1.1,0.5-2.4,0.7-3.6,1.1c-3.2,1.1-5.3,0.1-6.8-3.1C61.5,92.8,54.5,67.2,55.8,39.7
		c0.3-7,0.8-14,4.2-20.4c3.1-5.7,8.7-8.4,14.4-10.6c2.6-1,2.9,1.4,2.7,3.1c-0.7,5.2-1.6,10.4-2.4,15.5c-0.1,0.7-0.3,1.4,0,2.4
		c1.3-2.2,2.4-4.5,3.9-6.4c3.5-4.3,6.8-9,11.1-12.5c10.7-8.8,23.4-4.2,26.7,9.3c0.5,2,0.9,4.1,1.3,6.1
		C117.7,28,117.7,29.7,117.7,31.5z M96.5,19C86,24.5,73.8,60.9,77.8,74.5C94.6,65.7,106.2,31.6,96.5,19z"/>
	<path d="M44.2,0c8.3,5.5,9.5,14.1,9.5,22.8c0,10.5-1.4,20.9-1.8,31.4c-0.4,10.9,1.2,21.4,7.1,30.9c0.2,0.4,0.3,0.9,0.4,1.3
		c-8.9,4-13.2,1.6-17.1-10c-1.2,1.8-2.2,3.4-3.3,5c-9,13-23.4,13.5-32.5,0.6C3.4,77.4,2.2,71.4,0,66c0-3.2,0-6.5,0-9.7
		c1.3-5,2.3-10.2,4-15.1c2.5-7.4,8.7-11.3,15.3-14.6c4.8-2.4,9.6-3.1,14.8,0.4C31.2,16,31.4,6.4,42,0C42.7,0,43.5,0,44.2,0z
		 M37.4,46.7c-2.7,2.1-5.3,4.1-7.9,6.1c-1.2-4.6-1.8-8.7-3.3-12.5c-0.6-1.6-2.9-3.6-4.5-3.7c-1.5,0-3.9,1.9-4.6,3.6
		c-4.7,11.7-4.4,23.5,1.1,34.8c2.7,5.6,8,6.3,12.2,1.6C38.1,68,41.9,58.3,37.4,46.7z"/>
</g>
</svg>
