<?xml version="1.0" encoding="utf-8"?>
<!-- Generator: Adobe Illustrator 17.1.0, SVG Export Plug-In . SVG Version: 6.00 Build 0)  -->
<!DOCTYPE svg PUBLIC "-//W3C//DTD SVG 1.1//EN" "http://www.w3.org/Graphics/SVG/1.1/DTD/svg11.dtd">
<svg version="1.1" id="Layer_1" xmlns="http://www.w3.org/2000/svg" xmlns:xlink="http://www.w3.org/1999/xlink" x="0px" y="0px"
	 viewBox="0 0 710.8 167.5" enable-background="new 0 0 710.8 167.5" xml:space="preserve">
<path fill="#D29930" d="M127.2,24.7L110,8.3L95.1,25.2L74,5.8L52.8,25.1L38,8.3L20.9,24.6L0,0.1v69.1l74,98.3l74-98.3V0L127.2,24.7z
	 M39.2,78.9L69,154.2L6.9,71.6L39.2,78.9z M43.6,79.1h60.7L74,155.9L43.6,79.1z M108.8,78.9l32.4-7.3L79,154.2L108.8,78.9z
	 M144,66.9l-34.2,7.7l4.8-28.6L144,11V66.9z M110.2,14l14.4,13.7L113,41.6L98.1,27.9L110.2,14z M110.6,44.9l-5,30.3H42.4l-5.1-30.4
	L74,11.2L110.6,44.9z M37.8,14l12.1,13.8L35.2,41.3L23.5,27.6L37.8,14z M33.4,45.3l4.9,29.2L4,66.9v-56L33.4,45.3z"/>
<g>
	<path fill="#FFFFFF" d="M243.3,89.4h-5.5l-24.6-33.9l-8.6,7.5v26.3h-4.5V25.3h4.5v33.3l7.1-7.1l25.1-26.2h5.7l-26.3,27.1
		L243.3,89.4z"/>
	<path fill="#FFFFFF" d="M274.8,89.4V25.3h4.5v64.1H274.8z"/>
	<path fill="#FFFFFF" d="M366.5,89.4H362l-38-56.9h-0.4c0.4,6.8,0.5,11.9,0.5,15.3v41.6h-4.3V25.3h4.5l37.9,56.8h0.3
		c-0.3-5.3-0.4-10.3-0.4-15V25.3h4.3V89.4z"/>
	<path fill="#FFFFFF" d="M432.4,57.1H456v29.3c-6.2,2.6-13.2,3.9-20.9,3.9c-10.1,0-17.9-2.9-23.3-8.6s-8.1-13.8-8.1-24.3
		c0-6.5,1.3-12.3,4-17.3s6.5-8.9,11.5-11.7c5-2.7,10.7-4.1,17.2-4.1c7,0,13.3,1.3,18.8,3.9l-1.8,4c-5.6-2.6-11.3-3.9-17.3-3.9
		c-8.4,0-15.2,2.6-20.1,7.8s-7.4,12.3-7.4,21.1c0,9.6,2.4,16.9,7.1,21.8c4.7,4.9,11.6,7.3,20.7,7.3c5.9,0,10.9-0.8,15-2.5V61.3
		h-19.1V57.1z"/>
	<path fill="#FFFFFF" d="M494.6,89.4V25.3h4.5v59.9h30.6v4.2H494.6z"/>
	<path fill="#FFFFFF" d="M563.1,89.4V25.3h4.5v64.1H563.1z"/>
	<path fill="#FFFFFF" d="M612.7,89.4h-4.5V25.3h35.1v4.1h-30.7v27.2h28.9v4.2h-28.9V89.4z"/>
	<path fill="#FFFFFF" d="M710.8,89.4h-35V25.3h35v4.1h-30.6v24.3H709v4.1h-28.9v27.5h30.6V89.4z"/>
</g>
<g>
	<path fill="#FFFFFF" d="M356,143.2h-2.3v-33h18.1v2.1H356v14h14.9v2.1H356V143.2z"/>
	<path fill="#FFFFFF" d="M404.3,131.6h-13.4l-4.6,11.6h-2.5l13.3-33.1h1.5l13,33.1h-2.6L404.3,131.6z M391.8,129.5h11.8l-4.5-11.9
		c-0.4-0.9-0.8-2.2-1.4-3.9c-0.4,1.4-0.8,2.8-1.3,3.9L391.8,129.5z"/>
	<path fill="#FFFFFF" d="M442.2,143.2l-12.3-30.4h-0.2c0.1,1.9,0.2,3.8,0.2,5.7v24.7h-2.2v-33h3.6l11.7,29h0.1l11.7-29h3.5v33h-2.3
		v-25c0-1.7,0.1-3.5,0.3-5.4H456l-12.3,30.4H442.2z"/>
	<path fill="#FFFFFF" d="M479.1,143.2v-33h2.3v33H479.1z"/>
	<path fill="#FFFFFF" d="M502.3,143.2v-33h2.3V141h15.7v2.2H502.3z"/>
	<path fill="#FFFFFF" d="M545.1,128.3l9.7-18h2.5l-11,20.2v12.7h-2.4v-12.6l-11-20.4h2.6L545.1,128.3z"/>
</g>
</svg>
